# Blender v2.80 (sub 75) OBJ File: 'texture1.blend'
# www.blender.org
mtllib TVStand.mtl
o tv_tv_Cube
v 0.760320 0.210000 -0.000003
v -0.760320 0.210000 -0.000003
v -0.760320 0.210000 0.034615
v 0.760320 0.210000 0.034615
v 0.760320 -0.181440 0.034615
v 0.760320 -0.181440 -0.000003
v 0.253440 -0.195720 0.034615
v 0.000000 -0.181440 0.034615
v -0.253440 -0.195720 0.034615
v 0.800000 -0.210000 0.450000
v -0.800000 -0.210000 0.450000
v -0.800000 -0.210000 0.415385
v -0.253440 -0.210000 0.415385
v 0.253440 -0.210000 0.415385
v 0.800000 -0.210000 0.415385
v 0.800000 0.210000 0.450000
v 0.800000 -0.210000 0.034615
v 0.800000 0.210000 0.034615
v 0.253440 -0.210000 0.034615
v -0.253440 -0.195720 0.415385
v -0.253440 0.197767 0.415385
v 0.253440 0.197767 0.415385
v 0.253440 -0.195720 0.415385
v 0.253440 -0.181440 0.238043
v -0.253440 -0.181440 0.238043
v -0.253440 -0.181440 0.226602
v 0.253440 -0.181440 0.226602
v -0.800000 0.210000 0.450000
v -0.253440 0.197767 0.049260
v 0.253440 0.197767 0.049260
v 0.253440 0.197767 0.226602
v -0.253440 0.197767 0.226602
v -0.253440 -0.195720 0.049260
v 0.253440 -0.195720 0.049260
v -0.760320 -0.181440 0.034615
v -0.760320 -0.181440 -0.000003
v 0.253440 0.197767 0.238043
v -0.253440 0.197767 0.238043
v 0.496720 -0.227312 0.404585
v 0.496720 -0.227312 0.415385
v 0.496720 -0.210000 0.415385
v 0.496720 -0.210000 0.404585
v 0.556720 -0.210000 0.404585
v 0.556720 -0.210000 0.415385
v 0.556720 -0.227312 0.415385
v 0.556720 -0.227312 0.404585
v -0.800000 -0.210000 0.034615
v -0.800000 0.210000 0.034615
v -0.253440 -0.210000 0.034615
v -0.496720 -0.227312 0.404585
v -0.496720 -0.210000 0.404585
v -0.496720 -0.210000 0.415385
v -0.496720 -0.227312 0.415385
v -0.556720 -0.210000 0.404585
v -0.556720 -0.227312 0.404585
v -0.556720 -0.227312 0.415385
v -0.556720 -0.210000 0.415385
vt 0.307337 0.313038
vt 0.305072 0.079424
vt 0.322496 0.061469
vt 0.334816 0.333587
vt 0.843310 0.917815
vt 0.843310 0.639308
vt 0.866299 0.639308
vt 0.866299 0.917815
vt 0.028319 0.382031
vt 0.013812 0.256761
vt 0.027055 0.195726
vt 0.015626 0.134843
vt 0.921262 0.000361
vt 0.921262 0.299189
vt 0.898275 0.299189
vt 0.898275 0.197109
vt 0.898275 0.102440
vt 0.898275 0.000361
vt 0.598725 0.000361
vt 0.897553 0.000361
vt 0.897553 0.023347
vt 0.003632 0.394736
vt 0.335516 0.341115
vt 0.000361 0.256954
vt 0.999639 0.603909
vt 0.999639 0.957290
vt 0.880145 0.957290
vt 0.880145 0.603909
vt 0.598725 0.372313
vt 0.693394 0.372313
vt 0.693394 0.379911
vt 0.598725 0.379911
vt 0.598004 0.071457
vt 0.598004 0.337408
vt 0.598725 0.276202
vt 0.897553 0.276202
vt 0.716491 0.276923
vt 0.716491 0.371592
vt 0.598725 0.371592
vt 0.598725 0.276923
vt 0.102440 0.695007
vt 0.102440 0.947861
vt 0.000361 0.947861
vt 0.000361 0.695007
vt 0.947648 0.395458
vt 0.937148 0.398870
vt 0.921169 0.401131
vt 0.910589 0.399018
vt 0.986923 0.589611
vt 0.890291 0.593352
vt 0.782107 0.942546
vt 0.782107 0.965535
vt 0.498101 0.965535
vt 0.498101 0.942546
vt 0.640104 0.942546
vt 0.197831 0.695007
vt 0.197830 0.964811
vt 0.103162 0.964811
vt 0.103162 0.695007
vt 0.299910 0.672020
vt 0.394579 0.672020
vt 0.394579 0.951985
vt 0.299910 0.951985
vt 0.921548 0.403266
vt 0.498101 0.672020
vt 0.592770 0.672020
vt 0.592770 0.941824
vt 0.498101 0.941824
vt 0.000361 0.395458
vt 0.299189 0.395458
vt 0.299189 0.694285
vt 0.000361 0.694285
vt 0.879424 0.395458
vt 0.879424 0.638587
vt 0.599459 0.638587
vt 0.599459 0.395458
vt 0.694948 0.380633
vt 0.694948 0.387805
vt 0.682630 0.387805
vt 0.682630 0.380633
vt 0.669591 0.387805
vt 0.669591 0.380633
vt 0.681909 0.380633
vt 0.681909 0.387805
vt 0.198552 0.702179
vt 0.198552 0.695007
vt 0.209758 0.695007
vt 0.209758 0.702179
vt 0.622971 0.392950
vt 0.611765 0.392950
vt 0.611765 0.380633
vt 0.622971 0.380633
vt 0.634898 0.392950
vt 0.623692 0.392950
vt 0.623692 0.380633
vt 0.634898 0.380633
vt 0.103162 0.988522
vt 0.103162 0.965533
vt 0.381669 0.965533
vt 0.381669 0.988522
vt 0.033128 0.012723
vt 0.299910 0.671299
vt 0.598738 0.648312
vt 0.598738 0.671299
vt 0.009536 0.000361
vt 0.323391 0.053952
vt 0.002507 0.134286
vt 0.299910 0.395458
vt 0.598738 0.395458
vt 0.395300 0.672020
vt 0.497380 0.672020
vt 0.497380 0.924874
vt 0.395300 0.924874
vt 0.937080 0.401051
vt 0.599459 0.919273
vt 0.599459 0.639308
vt 0.842588 0.639308
vt 0.842588 0.919273
vt 0.668870 0.387805
vt 0.656552 0.387805
vt 0.656552 0.380633
vt 0.668870 0.380633
vt 0.648659 0.392950
vt 0.648659 0.380633
vt 0.655831 0.380633
vt 0.655831 0.392950
vt 0.221686 0.702179
vt 0.210480 0.702179
vt 0.210480 0.695007
vt 0.221686 0.695007
vt 0.598725 0.380633
vt 0.611043 0.380633
vt 0.611043 0.391839
vt 0.598725 0.391839
vt 0.647937 0.391839
vt 0.635620 0.391839
vt 0.635620 0.380633
vt 0.647937 0.380633
vt 0.811881 0.394689
vt 0.717213 0.394689
vt 0.717213 0.276923
vt 0.811881 0.276923
vn 0.0000 1.0000 0.0000
vn 1.0000 -0.0000 0.0000
vn 0.0000 0.0000 -1.0000
vn 0.0000 -1.0000 0.0000
vn 0.0000 -0.0000 1.0000
vn -1.0000 -0.0000 0.0000
usemtl tv
s 1
f 1/1/1 2/2/1 3/3/1 4/4/1
f 4/5/2 5/6/2 6/7/2 1/8/2
f 5/9/3 7/10/3 8/11/3
f 7/10/3 9/12/3 8/11/3
f 10/13/4 11/14/4 12/15/4 13/16/4 14/17/4 15/18/4
f 16/19/2 10/20/2 15/21/2
f 17/22/3 5/9/3 4/4/3 18/23/3
f 17/22/3 19/24/3 7/10/3 5/9/3
f 20/25/3 21/26/3 22/27/3 23/28/3
f 24/29/4 25/30/4 26/31/4 27/32/4
f 4/4/1 3/3/1 28/33/1 16/34/1
f 18/35/2 16/19/2 15/21/2 17/36/2
f 4/4/1 16/34/1 18/23/1
f 29/37/4 30/38/4 31/39/4 32/40/4
f 17/41/4 15/42/4 14/43/4 19/44/4
f 33/45/4 9/46/4 7/47/4 34/48/4
f 13/49/3 20/25/3 23/28/3 14/50/3
f 35/51/4 36/52/4 6/53/4 5/54/4 8/55/4
f 26/56/3 32/57/3 31/58/3 27/59/3
f 33/60/5 34/61/5 30/62/5 29/63/5
f 19/64/6 14/50/6 23/28/6 34/48/6 7/47/6
f 25/65/5 24/66/5 37/67/5 38/68/5
f 28/69/5 11/70/5 10/71/5 16/72/5
f 22/73/6 30/74/6 34/75/6 23/76/6
f 39/77/6 40/78/6 41/79/6 42/80/6
f 43/81/2 44/82/2 45/83/2 46/84/2
f 46/85/4 45/86/4 40/87/4 39/88/4
f 42/89/3 43/90/3 46/91/3 39/92/3
f 44/93/5 41/94/5 40/95/5 45/96/5
f 3/97/6 2/98/6 36/99/6 35/100/6
f 35/101/3 8/11/3 9/12/3
f 28/102/6 12/103/6 11/104/6
f 47/105/3 48/106/3 3/3/3 35/101/3
f 47/105/3 35/101/3 9/12/3 49/107/3
f 48/108/6 47/109/6 12/103/6 28/102/6
f 3/3/1 48/106/1 28/33/1
f 47/110/4 49/111/4 13/112/4 12/113/4
f 49/114/2 9/46/2 33/45/2 20/25/2 13/49/2
f 21/115/2 20/116/2 33/117/2 29/118/2
f 50/119/2 51/120/2 52/121/2 53/122/2
f 54/123/6 55/124/6 56/125/6 57/126/6
f 55/127/4 50/128/4 53/129/4 56/130/4
f 51/131/3 50/132/3 55/133/3 54/134/3
f 57/135/5 56/136/5 53/137/5 52/138/5
f 38/139/4 37/140/4 22/141/4 21/142/4
